<?xml version="1.0" encoding="utf-8"?>
<!-- Generator: Adobe Illustrator 22.1.0, SVG Export Plug-In . SVG Version: 6.00 Build 0)  -->
<svg version="1.1" id="Layer_1" xmlns="http://www.w3.org/2000/svg" xmlns:xlink="http://www.w3.org/1999/xlink" x="0px" y="0px"
	 viewBox="0 0 512 512" style="enable-background:new 0 0 512 512;" xml:space="preserve">
<style type="text/css">
	.st0{fill:#BABABA;}
</style>
<g>
	<g>
		<rect x="239.3" y="267.1" class="st0" width="33.4" height="33.4"/>
	</g>
</g>
<g>
	<g>
		<path class="st0" d="M72.3,167v16.7c0,46,37.4,83.5,83.5,83.5h50.1v-16.7c0-9.2,7.5-16.7,16.7-16.7h66.8c9.2,0,16.7,7.5,16.7,16.7
			v16.7h50.1c46,0,83.5-37.4,83.5-83.5V167L72.3,167L72.3,167z"/>
	</g>
</g>
<g>
	<g>
		<rect x="172.5" y="0" class="st0" width="167" height="133.6"/>
	</g>
</g>
<g>
	<g>
		<path class="st0" d="M55.7,0C28,0,5.6,22.5,5.6,50.1v33.4c0,27.6,22.5,50.1,50.1,50.1c37.1,0,46.3,0,83.5,0V0H55.7z"/>
	</g>
</g>
<g>
	<g>
		<path class="st0" d="M456.3,0h-83.5v133.6c37.1,0,46.3,0,83.5,0c27.6,0,50.1-22.5,50.1-50.1V50.1C506.4,22.5,484,0,456.3,0z"/>
	</g>
</g>
<g>
	<g>
		<path class="st0" d="M5.6,328.3v100.2c0,21.7,14,40.1,33.4,47c0-68.1,0-126.6,0-194.2C19.6,288.3,5.6,306.6,5.6,328.3z"/>
	</g>
</g>
<g>
	<g>
		<path class="st0" d="M356.2,300.5h-50.1v16.7c0,9.2-7.5,16.7-16.7,16.7h-66.8c-9.2,0-16.7-7.5-16.7-16.7v-16.7h-50.1
			c-32.7,0-62.2-13.5-83.5-35.2c0,87.1,0,28.1,0,113.1h367.3c0-72.3,0-40.7,0-113.1C418.4,287,388.9,300.5,356.2,300.5z"/>
	</g>
</g>
<g>
	<g>
		<path class="st0" d="M473,281.3c0,67.9,0,127.2,0,194.2c19.4-6.9,33.4-25.3,33.4-47V328.3C506.4,306.6,492.4,288.3,473,281.3z"/>
	</g>
</g>
<g>
	<g>
		<path class="st0" d="M339.5,411.8v16.7c0,9.2-7.5,16.7-16.7,16.7s-16.7-7.5-16.7-16.7v-16.7H72.3v50.1c0,27.7,22.4,50.1,50.1,50.1
			h267.1c27.7,0,50.1-22.4,50.1-50.1v-50.1H339.5z"/>
	</g>
</g>
</svg>
