<?xml version="1.0" encoding="utf-8"?>
<!-- Generator: Adobe Illustrator 22.1.0, SVG Export Plug-In . SVG Version: 6.00 Build 0)  -->
<svg version="1.1" id="Capa_1" xmlns="http://www.w3.org/2000/svg" xmlns:xlink="http://www.w3.org/1999/xlink" x="0px" y="0px"
	 viewBox="0 0 512 512" style="enable-background:new 0 0 512 512;" xml:space="preserve">
<style type="text/css">
	.st0{fill:#9B552B;}
</style>
<g>
	<g>
		<path class="st0" d="M508.9,77.8l-32-32c-3.4-3.4-8.7-4.1-12.8-1.7l-74.7,42.7c-3.3,1.9-5.4,5.4-5.4,9.3v16.9l-71.5,71.5
			c-15.8-9-31.5-13.7-45.9-13.7c-50.2,0-62.6,30.9-71.7,53.4c-8.4,21-13.8,31.9-35,31.9c-20.3,0-38,3.1-53.3,8.7V145.8l68.6-60.9
			c21.4-2.3,38.1-20.2,38.1-42.2c0-23.5-19.1-42.7-42.7-42.7c-22,0-39.9,16.7-42.2,38.1l-83.1,93.5c-3.8,4.2-3.6,10.6,0.4,14.6l3,3
			C32.8,166.3,0,210.7,0,288v213.3c0,5.9,4.8,10.7,10.7,10.7s10.7-4.8,10.7-10.7V288c0-70.2,29.1-109.3,42.6-123.7l3.2,3.2
			c2.1,2.1,4.8,3.1,7.5,3.1c2.5,0,5.1-0.9,7.1-2.7l3.6-3.2v110.5c-27.5,17.8-42.7,47.4-42.7,87.4c0,33.3,17.2,68,42.7,95.6v32.4
			H74.7c-5.9,0-10.7,4.8-10.7,10.7c0,5.9,4.8,10.7,10.7,10.7h42.7c5.9,0,10.7-4.8,10.7-10.7s-4.8-10.7-10.7-10.7h-10.7v-12.5
			c25.7,20.5,56.1,33.8,85.3,33.8c67.8,0,106.7-42.8,106.7-117.3c0-21.1,10.9-26.5,31.9-35c22.5-9.1,53.4-21.5,53.4-71.7
			c0-14.4-4.7-30.1-13.7-45.9l71.5-71.5h16.9c3.8,0,7.4-2.1,9.3-5.4l42.7-74.7C513,86.4,512.3,81.2,508.9,77.8z M188.9,423.5
			c-2.1,2.1-4.8,3.1-7.5,3.1c-2.7,0-5.5-1-7.5-3.1l-42.7-42.7c-4.2-4.2-4.2-10.9,0-15.1c4.2-4.2,10.9-4.2,15.1,0l42.7,42.7
			C193,412.6,193,419.4,188.9,423.5z M245.3,362.7c-29.4,0-53.3-23.9-53.3-53.3s23.9-53.3,53.3-53.3c29.4,0,53.3,23.9,53.3,53.3
			S274.8,362.7,245.3,362.7z"/>
	</g>
</g>
</svg>
