<?xml version="1.0" encoding="utf-8"?>
<!-- Generator: Adobe Illustrator 22.1.0, SVG Export Plug-In . SVG Version: 6.00 Build 0)  -->
<svg version="1.1" id="Capa_1" xmlns="http://www.w3.org/2000/svg" xmlns:xlink="http://www.w3.org/1999/xlink" x="0px" y="0px"
	 viewBox="0 0 512 512" style="enable-background:new 0 0 512 512;" xml:space="preserve">
<style type="text/css">
	.st0{fill:#9B552B;}
</style>
<g>
	<g>
		<g>
			<path class="st0" d="M432.3,322.2c-20.2-16.7-42-27.7-46.5-29.8c-0.5-0.2-0.8-0.7-0.8-1.3v-31.5c4-2.6,6.6-7.1,6.6-12.3v-32.7
				c0-16.3-13.2-29.5-29.5-29.5h-3.6H355c-16.3,0-29.5,13.2-29.5,29.5v32.7c0,5.1,2.6,9.6,6.6,12.3v31.5c0,0.2,0,0.4-0.1,0.5
				c6.2,4.3,12.7,9,19,14.2c7.4,6.1,11.6,15.1,11.6,24.7v26.3H438v-22.3C438,329.6,435.9,325.1,432.3,322.2z"/>
		</g>
		<g>
			<path class="st0" d="M342.7,316.1c-23.8-19.5-49.4-32.5-54.6-35c-0.6-0.3-0.9-0.8-0.9-1.6v-37c4.6-3.1,7.8-8.4,7.8-14.4v-38.4
				c0-19.1-15.5-34.6-34.6-34.6h-4.2H252c-19.1,0-34.6,15.5-34.6,34.6v38.4c0,6,3,11.3,7.8,14.4v37c0,0.6-0.4,1.3-0.9,1.6
				c-5.2,2.5-30.8,15.5-54.6,35c-4.3,3.6-6.8,8.8-6.8,14.4v26.3h93.3h93.3v-26.3C349.4,324.9,347,319.5,342.7,316.1z"/>
		</g>
		<g>
			<path class="st0" d="M179.8,291v-31.5c4-2.6,6.6-7.1,6.6-12.3v-32.7c0-16.3-13.2-29.5-29.5-29.5h-3.6h-3.6
				c-16.3,0-29.5,13.2-29.5,29.5v32.7c0,5.1,2.6,9.6,6.6,12.3V291c0,0.5-0.3,1-0.8,1.3c-4.4,2.2-26.2,13.2-46.5,29.8
				c-3.7,3-5.8,7.5-5.8,12.3v22.3h75.3v-26.3c0-9.6,4.2-18.7,11.6-24.7c6.3-5.2,12.8-10,19-14.2C179.9,291.3,179.8,291.1,179.8,291z
				"/>
		</g>
		<g>
			<path class="st0" d="M507.4,329c-16.3-13.3-33.7-22.1-37.2-23.9c-0.4-0.2-0.6-0.6-0.6-1v-25.3c3.1-2.1,5.2-5.8,5.2-9.9v-26.2
				c0-13-10.6-23.6-23.6-23.6h-2.8h-2.8c-13,0-23.6,10.6-23.6,23.6v26.2c0,4.1,2.1,7.7,5.2,9.9v22.3c4.5,3.1,9.1,6.7,13.7,10.4
				c6.8,5.7,10.8,13.9,10.8,22.9v22.3H512v-17.9C512,335.1,510.3,331.4,507.4,329z"/>
		</g>
		<g>
			<path class="st0" d="M84.8,278.9c3.1-2.1,5.2-5.8,5.2-9.9v-26.2c0-13-10.6-23.6-23.6-23.6h-2.8h-2.8c-13,0-23.6,10.6-23.6,23.6
				V269c0,4.1,2.1,7.7,5.2,9.9v25.3c0,0.4-0.2,0.8-0.6,1c-3.6,1.8-21.1,10.6-37.2,23.9c-2.9,2.4-4.6,6-4.6,9.8v17.9h60.3v-22.3
				c0-8.9,3.9-17.2,10.8-22.9c4.5-3.8,9.2-7.2,13.7-10.4C84.8,301.2,84.8,278.9,84.8,278.9z"/>
		</g>
	</g>
</g>
</svg>
