<svg id="logo" xmlns="http://www.w3.org/2000/svg" viewBox="0 0 178.58 82.2"><defs><style>.cls-1{fill:#9b562b;}.cls-2{fill:#a96b43;}.cls-3{fill:#c78a3d;}.cls-4{fill:#deb889;}</style></defs><title>logo-aztrek-QUADRI</title><path class="cls-1" d="M20.83,56.46H18.67V62h-.59V56.46H15.93v-.53h4.9Z"/><path class="cls-1" d="M25.33,62h-.58V59.49a2,2,0,0,0-.26-1.13.85.85,0,0,0-.76-.37,1.46,1.46,0,0,0-.49.09,2.07,2.07,0,0,0-.45.27,2,2,0,0,0-.37.4,1.52,1.52,0,0,0-.23.5V62h-.58V55.76h.58v2.78a2,2,0,0,1,1.74-1.08,1.38,1.38,0,0,1,.64.14A1.17,1.17,0,0,1,25,58a1.77,1.77,0,0,1,.24.61,3.64,3.64,0,0,1,.08.77Z"/><path class="cls-1" d="M28.45,62.05a2.1,2.1,0,0,1-.88-.18,2.19,2.19,0,0,1-.7-.5,2.45,2.45,0,0,1-.45-2.49,2.38,2.38,0,0,1,.46-.73,2.26,2.26,0,0,1,.69-.5,2.13,2.13,0,0,1,1.76,0,2.19,2.19,0,0,1,.7.5,2.43,2.43,0,0,1,.46,2.49,2.21,2.21,0,0,1-.46.73,2,2,0,0,1-.69.5A2.18,2.18,0,0,1,28.45,62.05Zm-1.61-2.28a1.93,1.93,0,0,0,.13.69,2.15,2.15,0,0,0,.34.57,1.67,1.67,0,0,0,.51.37,1.52,1.52,0,0,0,.63.14,1.44,1.44,0,0,0,.62-.14,1.62,1.62,0,0,0,.52-.38,1.82,1.82,0,0,0,.35-.57,2,2,0,0,0,.12-.69,2,2,0,0,0-.12-.7,1.82,1.82,0,0,0-.35-.57,1.62,1.62,0,0,0-.52-.38,1.44,1.44,0,0,0-1.24,0,1.58,1.58,0,0,0-.51.39,1.82,1.82,0,0,0-.35.57A2,2,0,0,0,26.84,59.77Z"/><path class="cls-1" d="M33,62.05a1.25,1.25,0,0,1-1.08-.48,2.45,2.45,0,0,1-.35-1.43v-2.6h.58V60q0,1.5,1,1.5a1.81,1.81,0,0,0,.51-.08,1.66,1.66,0,0,0,.45-.25,2.22,2.22,0,0,0,.37-.38,1.78,1.78,0,0,0,.27-.51V57.54h.58v3.68c0,.16.07.24.2.24V62h-.25a.42.42,0,0,1-.33-.14.49.49,0,0,1-.13-.37V61a2,2,0,0,1-.79.81A2.07,2.07,0,0,1,33,62.05Z"/><path class="cls-1" d="M38.14,62.05a3.15,3.15,0,0,1-1-.17,2.46,2.46,0,0,1-.85-.49l.26-.39a3.21,3.21,0,0,0,.76.46,2.31,2.31,0,0,0,.83.15,1.48,1.48,0,0,0,.86-.22.7.7,0,0,0,.31-.62.53.53,0,0,0-.08-.31.75.75,0,0,0-.25-.21,2.14,2.14,0,0,0-.42-.17L38,59.93q-.39-.09-.66-.18a2.31,2.31,0,0,1-.47-.22.75.75,0,0,1-.27-.29,1,1,0,0,1-.09-.44,1.34,1.34,0,0,1,.13-.58A1.22,1.22,0,0,1,37,57.8a1.53,1.53,0,0,1,.53-.25,2.2,2.2,0,0,1,.64-.09,2.52,2.52,0,0,1,.93.17,1.89,1.89,0,0,1,.67.43l-.28.34a1.71,1.71,0,0,0-.6-.38,2.3,2.3,0,0,0-.74-.13,1.86,1.86,0,0,0-.42,0,1,1,0,0,0-.35.15.76.76,0,0,0-.32.63.62.62,0,0,0,.06.29.53.53,0,0,0,.2.19,1.59,1.59,0,0,0,.34.14,3.75,3.75,0,0,0,.51.13l.75.21a2.73,2.73,0,0,1,.54.24.92.92,0,0,1,.32.33.89.89,0,0,1,.12.47,1.15,1.15,0,0,1-.47,1A2,2,0,0,1,38.14,62.05Z"/><path class="cls-1" d="M41.92,62.05a1.58,1.58,0,0,1-.58-.11,1.49,1.49,0,0,1-.47-.29,1.4,1.4,0,0,1-.31-.44,1.33,1.33,0,0,1-.11-.54,1.08,1.08,0,0,1,.14-.53,1.3,1.3,0,0,1,.38-.43,1.69,1.69,0,0,1,.59-.27,2.45,2.45,0,0,1,.74-.1,4,4,0,0,1,.69.06,2.53,2.53,0,0,1,.62.17v-.4a1.29,1.29,0,0,0-.33-.93,1.22,1.22,0,0,0-.92-.35,2,2,0,0,0-.69.14,3.47,3.47,0,0,0-.73.39l-.2-.38a3,3,0,0,1,1.67-.58,1.81,1.81,0,0,1,1.31.47,1.75,1.75,0,0,1,.47,1.29v2q0,.24.21.24V62l-.22,0a.51.51,0,0,1-.34-.11.41.41,0,0,1-.13-.31l0-.34a2,2,0,0,1-.77.61A2.39,2.39,0,0,1,41.92,62.05Zm.14-.44a2.09,2.09,0,0,0,.83-.17,1.47,1.47,0,0,0,.57-.45.66.66,0,0,0,.12-.17.5.5,0,0,0,0-.16v-.73a3.78,3.78,0,0,0-.6-.17,3.21,3.21,0,0,0-.63-.06,1.73,1.73,0,0,0-1,.26.77.77,0,0,0-.39.67.82.82,0,0,0,.09.38.77.77,0,0,0,.22.31.93.93,0,0,0,.33.21A1.16,1.16,0,0,0,42.06,61.61Z"/><path class="cls-1" d="M49.16,62h-.57V59.49a2.12,2.12,0,0,0-.24-1.15.8.8,0,0,0-.72-.35,1.52,1.52,0,0,0-.51.09,1.81,1.81,0,0,0-.47.26,2.13,2.13,0,0,0-.38.41,1.38,1.38,0,0,0-.25.5V62h-.58V57.54H46v1a2.19,2.19,0,0,1,1.88-1.08,1.32,1.32,0,0,1,.62.14,1.07,1.07,0,0,1,.41.38,1.83,1.83,0,0,1,.22.6,4.79,4.79,0,0,1,.06.79Z"/><path class="cls-1" d="M52.21,62.05a1.85,1.85,0,0,1-.84-.19,2.17,2.17,0,0,1-.68-.51,2.43,2.43,0,0,1-.59-1.59,2.58,2.58,0,0,1,.15-.88,2.34,2.34,0,0,1,.42-.74,2.09,2.09,0,0,1,.64-.5,1.85,1.85,0,0,1,.81-.18,1.78,1.78,0,0,1,1,.29,2.41,2.41,0,0,1,.68.71v-2.7h.57v5.46q0,.24.21.24V62l-.21,0a.51.51,0,0,1-.35-.13.43.43,0,0,1-.16-.32v-.43a1.94,1.94,0,0,1-1.65.94Zm.13-.51a1.59,1.59,0,0,0,.46-.08,2,2,0,0,0,.45-.24,1.5,1.5,0,0,0,.36-.35,1,1,0,0,0,.19-.43V59.07a1.51,1.51,0,0,0-.25-.42,2.1,2.1,0,0,0-.37-.36,1.6,1.6,0,0,0-.45-.23,1.25,1.25,0,0,0-.46-.09,1.38,1.38,0,0,0-.65.15,1.8,1.8,0,0,0-.5.41,1.87,1.87,0,0,0-.32.57,2.17,2.17,0,0,0-.11.66,1.91,1.91,0,0,0,.13.68,1.76,1.76,0,0,0,.87,1A1.58,1.58,0,0,0,52.34,61.54Z"/><path class="cls-1" d="M57.15,62.05a3.2,3.2,0,0,1-1-.17,2.46,2.46,0,0,1-.85-.49l.27-.39a3.21,3.21,0,0,0,.76.46,2.23,2.23,0,0,0,.83.15,1.45,1.45,0,0,0,.85-.22.7.7,0,0,0,.32-.62.54.54,0,0,0-.09-.31.67.67,0,0,0-.25-.21,2.31,2.31,0,0,0-.41-.17L57,59.93l-.66-.18a2.2,2.2,0,0,1-.46-.22.75.75,0,0,1-.27-.29,1,1,0,0,1-.09-.44,1.19,1.19,0,0,1,.49-1,1.4,1.4,0,0,1,.52-.25,2.25,2.25,0,0,1,.64-.09,2.52,2.52,0,0,1,.93.17,1.8,1.8,0,0,1,.67.43l-.28.34a1.54,1.54,0,0,0-.6-.38,2.24,2.24,0,0,0-.73-.13,1.88,1.88,0,0,0-.43,0,1,1,0,0,0-.34.15.75.75,0,0,0-.24.26.84.84,0,0,0-.08.37.62.62,0,0,0,.06.29.49.49,0,0,0,.19.19,1.69,1.69,0,0,0,.35.14,4,4,0,0,0,.5.13q.43.11.75.21a2.29,2.29,0,0,1,.54.24.87.87,0,0,1,.33.33,1,1,0,0,1,.11.47,1.15,1.15,0,0,1-.47,1A2,2,0,0,1,57.15,62.05Z"/><path class="cls-1" d="M64.12,61.75l-.15.07-.23.09-.29.07a1.86,1.86,0,0,1-.34,0,1.49,1.49,0,0,1-.36-.05.9.9,0,0,1-.29-.16.71.71,0,0,1-.21-.27.87.87,0,0,1-.07-.37V58h-.61v-.46h.61V56h.57v1.5h1V58h-1v3a.49.49,0,0,0,.18.37.61.61,0,0,0,.36.11,1.1,1.1,0,0,0,.43-.08.83.83,0,0,0,.24-.12Z"/><path class="cls-1" d="M67.05,58.05a1.84,1.84,0,0,0-1,.32,1.59,1.59,0,0,0-.61.84V62h-.58V57.54h.54V58.6a2,2,0,0,1,.67-.8,1.53,1.53,0,0,1,.89-.29h.11Z"/><path class="cls-1" d="M68.88,62.05a1.63,1.63,0,0,1-.59-.11,1.44,1.44,0,0,1-.46-.29,1.28,1.28,0,0,1-.32-.44,1.33,1.33,0,0,1-.11-.54,1.08,1.08,0,0,1,.14-.53,1.3,1.3,0,0,1,.38-.43,1.78,1.78,0,0,1,.59-.27,2.57,2.57,0,0,1,.75-.1,4.2,4.2,0,0,1,.69.06,2.81,2.81,0,0,1,.62.17v-.4a1.29,1.29,0,0,0-.33-.93,1.24,1.24,0,0,0-.92-.35,2,2,0,0,0-.7.14,3.19,3.19,0,0,0-.72.39L67.69,58a3,3,0,0,1,1.67-.58,1.79,1.79,0,0,1,1.31.47,1.71,1.71,0,0,1,.47,1.29v2c0,.16.07.24.22.24V62l-.22,0a.52.52,0,0,1-.35-.11.44.44,0,0,1-.13-.31l0-.34a2,2,0,0,1-.77.61A2.38,2.38,0,0,1,68.88,62.05Zm.13-.44a2.05,2.05,0,0,0,.83-.17,1.47,1.47,0,0,0,.57-.45.66.66,0,0,0,.12-.17.53.53,0,0,0,0-.16v-.73a4.5,4.5,0,0,0-.6-.17,3.39,3.39,0,0,0-.64-.06,1.75,1.75,0,0,0-1,.26.78.78,0,0,0-.38.67A.81.81,0,0,0,68,61a.87.87,0,0,0,.22.31.93.93,0,0,0,.33.21A1.16,1.16,0,0,0,69,61.61Z"/><path class="cls-1" d="M73.6,62l-1.8-4.43h.59l1.53,3.89,1.53-3.89H76L74.21,62Z"/><path class="cls-1" d="M78.57,62.05a2.14,2.14,0,0,1-.89-.18,2.08,2.08,0,0,1-.7-.5,2.31,2.31,0,0,1-.63-1.63,2.33,2.33,0,0,1,.16-.88,2.22,2.22,0,0,1,.46-.72,2.35,2.35,0,0,1,.7-.5,2.21,2.21,0,0,1,.89-.18,2.18,2.18,0,0,1,.89.18,2.31,2.31,0,0,1,.69.5,2.43,2.43,0,0,1,.45.72,2.28,2.28,0,0,1,.16.87v.14a.22.22,0,0,1,0,.09H77a1.79,1.79,0,0,0,.17.66,1.73,1.73,0,0,0,.36.52,1.53,1.53,0,0,0,.5.34,1.42,1.42,0,0,0,.61.13,1.65,1.65,0,0,0,.43-.06,1.68,1.68,0,0,0,.39-.16,1.54,1.54,0,0,0,.32-.25,1,1,0,0,0,.22-.33l.5.13a1.34,1.34,0,0,1-.29.45,2.12,2.12,0,0,1-.43.35,2,2,0,0,1-.54.23A2.57,2.57,0,0,1,78.57,62.05Zm1.63-2.53a1.69,1.69,0,0,0-.17-.65,1.65,1.65,0,0,0-.86-.84,1.53,1.53,0,0,0-.6-.12A1.63,1.63,0,0,0,78,58a1.59,1.59,0,0,0-.85.84,1.94,1.94,0,0,0-.16.65Z"/><path class="cls-1" d="M81.67,55.76h.58V61a.47.47,0,0,0,.51.53l.23,0a1.55,1.55,0,0,0,.23-.06l.11.46a1.76,1.76,0,0,1-.4.11,2.28,2.28,0,0,1-.4.05.85.85,0,0,1-.63-.23.82.82,0,0,1-.23-.63Z"/><path class="cls-1" d="M85.87,62.05a2.14,2.14,0,0,1-.89-.18,2.19,2.19,0,0,1-.7-.5,2.31,2.31,0,0,1-.63-1.63,2.33,2.33,0,0,1,.16-.88,2.22,2.22,0,0,1,.46-.72,2.35,2.35,0,0,1,.7-.5,2.21,2.21,0,0,1,.89-.18,2.07,2.07,0,0,1,1.58.68,2.43,2.43,0,0,1,.45.72,2.28,2.28,0,0,1,.16.87v.14A.22.22,0,0,1,88,60H84.25a1.79,1.79,0,0,0,.17.66,1.73,1.73,0,0,0,.36.52,1.53,1.53,0,0,0,.5.34,1.42,1.42,0,0,0,.61.13,1.65,1.65,0,0,0,.43-.06,1.68,1.68,0,0,0,.39-.16,1.54,1.54,0,0,0,.32-.25,1,1,0,0,0,.22-.33l.5.13a1.2,1.2,0,0,1-.29.45,2,2,0,0,1-1,.58A2.57,2.57,0,0,1,85.87,62.05Zm1.63-2.53a1.69,1.69,0,0,0-.17-.65,1.56,1.56,0,0,0-.86-.84,1.53,1.53,0,0,0-.6-.12,1.63,1.63,0,0,0-.62.12,1.59,1.59,0,0,0-.85.84,1.94,1.94,0,0,0-.16.65Z"/><path class="cls-1" d="M91.15,58.05a1.84,1.84,0,0,0-1,.32,1.59,1.59,0,0,0-.61.84V62h-.58V57.54h.55V58.6a1.94,1.94,0,0,1,.66-.8,1.57,1.57,0,0,1,.89-.29h.11Z"/><path class="cls-1" d="M93.4,62.05a3.1,3.1,0,0,1-1-.17,2.37,2.37,0,0,1-.85-.49L91.8,61a3.21,3.21,0,0,0,.76.46,2.27,2.27,0,0,0,.83.15,1.43,1.43,0,0,0,.85-.22.68.68,0,0,0,.32-.62.62.62,0,0,0-.08-.31.75.75,0,0,0-.25-.21,2.14,2.14,0,0,0-.42-.17l-.58-.15-.67-.18a2.48,2.48,0,0,1-.46-.22.75.75,0,0,1-.27-.29,1,1,0,0,1-.09-.44,1.19,1.19,0,0,1,.49-1,1.48,1.48,0,0,1,.52-.25,2.32,2.32,0,0,1,.65-.09,2.43,2.43,0,0,1,.92.17,1.85,1.85,0,0,1,.68.43l-.29.34a1.58,1.58,0,0,0-.59-.38,2.35,2.35,0,0,0-.74-.13,1.86,1.86,0,0,0-.42,0,.93.93,0,0,0-.35.15.64.64,0,0,0-.23.26.72.72,0,0,0-.09.37.62.62,0,0,0,.06.29.53.53,0,0,0,.2.19,1.59,1.59,0,0,0,.34.14,3.75,3.75,0,0,0,.51.13l.75.21a2.39,2.39,0,0,1,.53.24.87.87,0,0,1,.33.33.88.88,0,0,1,.11.47,1.14,1.14,0,0,1-.46,1A2,2,0,0,1,93.4,62.05Z"/><path class="cls-1" d="M96.16,62.65l.14-.71h-.19v-.81h.56v.81l-.21.71Z"/><path class="cls-1" d="M102,62.05a2.13,2.13,0,0,1-.88-.18,2,2,0,0,1-.69-.5,2.21,2.21,0,0,1-.46-.73,2.5,2.5,0,0,1,0-1.76,2.59,2.59,0,0,1,.46-.73,2.19,2.19,0,0,1,.7-.5,1.92,1.92,0,0,1,.87-.19,2,2,0,0,1,.88.19,2.19,2.19,0,0,1,.7.5,2.43,2.43,0,0,1,.46,2.49,2.36,2.36,0,0,1-.45.73,2.19,2.19,0,0,1-.7.5A2.14,2.14,0,0,1,102,62.05Zm-1.6-2.28a1.92,1.92,0,0,0,.12.69,1.94,1.94,0,0,0,.35.57,1.57,1.57,0,0,0,1.13.51,1.52,1.52,0,0,0,.63-.14,1.7,1.7,0,0,0,.51-.38,1.82,1.82,0,0,0,.35-.57,2,2,0,0,0,.13-.69,2,2,0,0,0-.13-.7,1.82,1.82,0,0,0-.35-.57,1.7,1.7,0,0,0-.51-.38A1.52,1.52,0,0,0,102,58a1.44,1.44,0,0,0-.62.14,1.58,1.58,0,0,0-.51.39,1.82,1.82,0,0,0-.35.57A2,2,0,0,0,100.43,59.77Z"/><path class="cls-1" d="M108.93,62h-.58V59.49a2.12,2.12,0,0,0-.24-1.15.79.79,0,0,0-.71-.35,1.52,1.52,0,0,0-.51.09,1.87,1.87,0,0,0-.48.26,2.13,2.13,0,0,0-.38.41,1.38,1.38,0,0,0-.25.5V62h-.58V57.54h.53v1a2.19,2.19,0,0,1,1.88-1.08,1.32,1.32,0,0,1,.62.14,1,1,0,0,1,.41.38,1.83,1.83,0,0,1,.22.6,4.74,4.74,0,0,1,.07.79Z"/><path class="cls-1" d="M112.07,62.05a2.12,2.12,0,0,1-1.59-.68,2.36,2.36,0,0,1-.46-.74,2.39,2.39,0,0,1-.17-.89,2.34,2.34,0,0,1,.17-.88,2.07,2.07,0,0,1,.46-.72,2.23,2.23,0,0,1,.7-.5,2.13,2.13,0,0,1,.88-.18,2.07,2.07,0,0,1,1.58.68,2.08,2.08,0,0,1,.45.72,2.28,2.28,0,0,1,.16.87V60h-3.79a1.78,1.78,0,0,0,.16.66,1.93,1.93,0,0,0,.36.52,1.57,1.57,0,0,0,.51.34,1.39,1.39,0,0,0,.61.13,1.52,1.52,0,0,0,.42-.06,1.68,1.68,0,0,0,.39-.16,1.59,1.59,0,0,0,.33-.25,1.19,1.19,0,0,0,.22-.33l.5.13a1.51,1.51,0,0,1-.29.45,2.44,2.44,0,0,1-.43.35,2.06,2.06,0,0,1-.55.23A2.51,2.51,0,0,1,112.07,62.05Zm1.63-2.53a1.68,1.68,0,0,0-.16-.65,1.94,1.94,0,0,0-.36-.51,1.58,1.58,0,0,0-1.11-.45,1.58,1.58,0,0,0-.61.12,1.56,1.56,0,0,0-.86.84,1.93,1.93,0,0,0-.15.65Z"/><path class="cls-1" d="M117,59.74a2.42,2.42,0,0,1,.16-.89,2.31,2.31,0,0,1,.45-.72,2.1,2.1,0,0,1,.71-.49,2.19,2.19,0,0,1,.9-.18,2.13,2.13,0,0,1,1.09.28,1.94,1.94,0,0,1,.71.77l-.56.18a1.47,1.47,0,0,0-.52-.53,1.49,1.49,0,0,0-.75-.19,1.57,1.57,0,0,0-1.14.51,1.55,1.55,0,0,0-.34.55,2,2,0,0,0,0,1.41,1.87,1.87,0,0,0,.35.58,1.62,1.62,0,0,0,.52.38,1.44,1.44,0,0,0,.62.14,1.52,1.52,0,0,0,.42-.06,1.36,1.36,0,0,0,.39-.17,1.22,1.22,0,0,0,.3-.24.64.64,0,0,0,.18-.29l.57.17a1.34,1.34,0,0,1-.27.44,2.06,2.06,0,0,1-.42.35,1.87,1.87,0,0,1-.54.23,2.35,2.35,0,0,1-.6.08,2.23,2.23,0,0,1-.9-.18,2.19,2.19,0,0,1-.7-.5,2.31,2.31,0,0,1-.63-1.63Z"/><path class="cls-1" d="M123.82,62.05a2.13,2.13,0,0,1-.88-.18,2,2,0,0,1-.69-.5,2.21,2.21,0,0,1-.46-.73,2.59,2.59,0,0,1-.16-.88,2.38,2.38,0,0,1,.17-.88,2.21,2.21,0,0,1,.46-.73,2,2,0,0,1,.69-.5,2,2,0,0,1,.87-.19,2,2,0,0,1,.88.19,2.08,2.08,0,0,1,.7.5,2.21,2.21,0,0,1,.46.73,2.36,2.36,0,0,1,0,1.76,2,2,0,0,1-.45.73,2.19,2.19,0,0,1-.7.5A2.14,2.14,0,0,1,123.82,62.05Zm-1.6-2.28a1.73,1.73,0,0,0,.13.69,1.92,1.92,0,0,0,.34.57,1.46,1.46,0,0,0,.51.37,1.47,1.47,0,0,0,1.25,0A1.58,1.58,0,0,0,125,61a1.65,1.65,0,0,0,.35-.57,1.77,1.77,0,0,0,.13-.69,1.82,1.82,0,0,0-.13-.7,1.65,1.65,0,0,0-.35-.57,1.58,1.58,0,0,0-.51-.38,1.47,1.47,0,0,0-1.25,0,1.58,1.58,0,0,0-.51.39,2,2,0,0,0-.47,1.27Z"/><path class="cls-1" d="M133.58,62H133V59.49a2.15,2.15,0,0,0-.24-1.14A.84.84,0,0,0,132,58a1.28,1.28,0,0,0-.48.09,1.54,1.54,0,0,0-.42.26,1.91,1.91,0,0,0-.56.92V62H130V59.49a2.12,2.12,0,0,0-.24-1.15A.83.83,0,0,0,129,58a1.28,1.28,0,0,0-.9.35,2,2,0,0,0-.56.91V62H127V57.54h.52v1a2.15,2.15,0,0,1,.72-.8,1.83,1.83,0,0,1,1-.28,1.25,1.25,0,0,1,.9.31,1.4,1.4,0,0,1,.41.83,1.91,1.91,0,0,1,1.71-1.14,1.33,1.33,0,0,1,.63.14,1,1,0,0,1,.42.38,1.76,1.76,0,0,1,.23.61,3.71,3.71,0,0,1,.07.78Z"/><path class="cls-1" d="M141.39,62h-.57V59.49a2.14,2.14,0,0,0-.25-1.14.82.82,0,0,0-.73-.36,1.28,1.28,0,0,0-.48.09,1.54,1.54,0,0,0-.42.26,1.65,1.65,0,0,0-.33.41,2,2,0,0,0-.23.51V62h-.57V59.49a2.12,2.12,0,0,0-.24-1.15.83.83,0,0,0-.73-.35,1.25,1.25,0,0,0-.89.35,1.9,1.9,0,0,0-.57.91V62h-.57V57.54h.52v1a2.15,2.15,0,0,1,.72-.8,1.84,1.84,0,0,1,1-.28,1.24,1.24,0,0,1,.89.31,1.34,1.34,0,0,1,.41.83A1.91,1.91,0,0,1,140,57.46a1.41,1.41,0,0,1,.64.14,1.07,1.07,0,0,1,.41.38,1.76,1.76,0,0,1,.23.61,3.71,3.71,0,0,1,.07.78Z"/><path class="cls-1" d="M144,62.05a1.23,1.23,0,0,1-1.07-.48,2.38,2.38,0,0,1-.35-1.43v-2.6h.57V60c0,1,.35,1.5,1,1.5a1.69,1.69,0,0,0,.5-.08,1.58,1.58,0,0,0,.46-.25,2.22,2.22,0,0,0,.37-.38,2.06,2.06,0,0,0,.27-.51V57.54h.58v3.68c0,.16.07.24.2.24V62h-.25a.42.42,0,0,1-.33-.14.49.49,0,0,1-.13-.37V61a2.05,2.05,0,0,1-.79.81A2.08,2.08,0,0,1,144,62.05Z"/><path class="cls-1" d="M151.39,62h-.58V59.49a2.23,2.23,0,0,0-.23-1.15.82.82,0,0,0-.72-.35,1.52,1.52,0,0,0-.51.09,1.66,1.66,0,0,0-.47.26,1.9,1.9,0,0,0-.39.41,1.54,1.54,0,0,0-.24.5V62h-.58V57.54h.52v1a2.19,2.19,0,0,1,1.88-1.08,1.29,1.29,0,0,1,.62.14,1,1,0,0,1,.41.38,1.63,1.63,0,0,1,.22.6,3.87,3.87,0,0,1,.07.79Z"/><path class="cls-1" d="M152.62,56.61v-.85h.58v.85Zm0,5.36V57.54h.58V62Z"/><path class="cls-1" d="M156.6,61.75l-.15.07-.22.09-.29.07a1.86,1.86,0,0,1-.34,0,1.36,1.36,0,0,1-.36-.05,1.08,1.08,0,0,1-.3-.16.79.79,0,0,1-.2-.27.87.87,0,0,1-.08-.37V58h-.61v-.46h.61V56h.58v1.5h1V58h-1v3a.48.48,0,0,0,.17.37.67.67,0,0,0,.37.11,1.18,1.18,0,0,0,.43-.08,1.28,1.28,0,0,0,.24-.12Z"/><path class="cls-1" d="M157.58,63.32l.13,0h.12a.52.52,0,0,0,.24,0,.47.47,0,0,0,.18-.19,2.32,2.32,0,0,0,.19-.41c.07-.18.17-.43.3-.73l-1.93-4.43h.6l1.64,3.89,1.52-3.89h.55l-2.29,5.71a1.18,1.18,0,0,1-.31.43.9.9,0,0,1-.59.18h-.17l-.18,0Z"/><path class="cls-1" d="M161.44,62v-.84h.5V62Z"/><path class="cls-1" d="M78.46,49.07c-.19,0-.43,0-.74,0s-.48,0-.7,0l-.59,0-1.29-.12c-.91.08-1.74.14-2.49.19l-2.17.12-2.16.09-2.49.14a.87.87,0,0,1-.25,0l-.21-.12H64.23c0-.28-.09-.53-.11-.76a6.21,6.21,0,0,1,0-.79l.53-.69c.38-.46.69-.86.93-1.22l.94-1.33c.45-.58.86-1.12,1.21-1.61s.69-1,1-1.43.66-.89,1-1.33a13.15,13.15,0,0,1,1.35-1.33,6.52,6.52,0,0,0,1.11-1c.3-.37.58-.73.83-1.1l.76-1.1c.25-.37.55-.76.88-1.16l-1.14,0c-.51,0-1.07,0-1.68-.08l-1.92-.11c-.67,0-1.32-.08-2-.14l-1.14,0a1.38,1.38,0,0,1-1.1-.36l-.08-1c0-.15,0-.31-.06-.47s0-.34,0-.51a.67.67,0,0,1,.31-.06.94.94,0,0,0,.42-.13h7.18l2,0,2.27,0,.38.15.2.08.25.07L79,33.06c.07.22.14.43.21.62a3.31,3.31,0,0,0,.28.63c-.38.43-.77.87-1.18,1.31A3.75,3.75,0,0,0,77.46,37l-.12.42-2.54,4c-.38.4-.7.77-1,1.08s-.51.64-.76,1c-.15.15-.33.34-.53.57s-.4.46-.59.7a6.33,6.33,0,0,0-.5.73,1.33,1.33,0,0,0-.21.66l.48-.06h.36l.61-.12.61.12a2.91,2.91,0,0,0,.64.07,9,9,0,0,0,1,0l1-.11,1.23.17c.29,0,.56.08.8.13l.8.17L80,46.7v1.37a7.29,7.29,0,0,0-.51.62,2,2,0,0,1-.21.29C78.93,49,78.65,49.06,78.46,49.07Z"/><path class="cls-1" d="M89.66,35.53c0-.1-.11-.16-.31-.16a.52.52,0,0,0-.42.19l-.68.08-.36,0-.32,0a1.87,1.87,0,0,0-.31-.1,2.54,2.54,0,0,0-.49,0c-.18,0-.28,0-.31.11l-.7.06-.55,0a.67.67,0,0,1-.19-.1l-.15-.13a.62.62,0,0,1-.31-.38,2.44,2.44,0,0,1-.13-.72c0-.28,0-.55,0-.8V33l.1-.1.13-.13.27-.23h.6a3.27,3.27,0,0,0,.54,0h.6l.23,0,.19-.11q1.29,0,2.4.09l2.18.21q1.08.12,2.19.21c.73.06,1.55.1,2.47.1a.26.26,0,0,0,.07.19l.12.11a.81.81,0,0,0,.34,0l.89,0a2.68,2.68,0,0,0,.55-.08,2.58,2.58,0,0,0,.42-.13,4.23,4.23,0,0,1,.49-.15.55.55,0,0,1,.14.38c0,.13.08.26.28.42a.44.44,0,0,0-.07.26c0,.13,0,.19,0,.19a2.12,2.12,0,0,1,0,.27,1.23,1.23,0,0,0,0,.27c0,.1,0,.15,0,.17h.14a3.26,3.26,0,0,1-.82.4c-.27.09-.45.15-.55.17H97.5a4.42,4.42,0,0,1-.78-.07,6.69,6.69,0,0,0-.78.13,1.23,1.23,0,0,1-.32.06,1.17,1.17,0,0,1-.38,0l-.34-.11H93.53l.15,2,.92,2.28v6.5l.22.79v2.63l-1,.3-3.08-.27-1,.19-.46-.87L89.24,47V41.65L89.88,38V35.53Z"/><path class="cls-1" d="M117.83,44c.7.72,1.47,1.46,2.3,2.22a7.13,7.13,0,0,0,.55.57l.65.63c.21.22.4.42.55.61a.87.87,0,0,1,.23.47c0,.18-.24.36-.71.54a15.91,15.91,0,0,0-1.46.64l-1.33.65-.72-.38-.59-.4A.57.57,0,0,1,117,49c-.33-.36-.61-.67-.82-.95s-.42-.55-.61-.82l-.59-.83a12,12,0,0,0-.83-1.05.77.77,0,0,0-.35-.66,1.7,1.7,0,0,1-.53-.71,4.25,4.25,0,0,0-.44-.36,2.31,2.31,0,0,1-.51-.55l-1.21.38a4.74,4.74,0,0,1-.76.34,5,5,0,0,1-.8.19l.15.69-.19,2.58.11,1.75-.72.64h-3l-.42.31H105l-.15-.87V42.37l-.27-.08.76-.11V32l.69-.56,1.55.3.27-.34h.61l3.42-.27c0,.2.17.34.43.4a5.73,5.73,0,0,0,.86.13,5.93,5.93,0,0,1,2.66.72,6.77,6.77,0,0,1,1.9,1.6,6.44,6.44,0,0,1,1.14,2.15,7.77,7.77,0,0,1,.38,2.33,1.93,1.93,0,0,1-.38,1.11,5.35,5.35,0,0,1-.93,1,9.61,9.61,0,0,1-1.14.82,5.19,5.19,0,0,1-.93.48C116.47,42.56,117.14,43.3,117.83,44ZM109,37.2l.3,1.78v1h.57l5.24-1,1.37-1.9a2.11,2.11,0,0,0-.72-1.24,3.1,3.1,0,0,0-1.12-.51,7,7,0,0,0-1.31-.19,5.27,5.27,0,0,1-1.29-.23L111,34.63a4.33,4.33,0,0,0-.89-.09l-.49,0-.53,0Z"/><path class="cls-1" d="M140.76,47.63l.08.28v.27a.53.53,0,0,1-.13.21,2.6,2.6,0,0,0-.29.47l-1.63.12-3.46.68-1.48.46h-7.56V47.73l-.23-.54.34-1.55V39.36l-.19-.53V31.92l.53-.61.23.08h3.38l.53.41,3.84-.53,3-.46,1.52.5v1.86l-.68.38-8.13.61-.27.23.57,3.87.34,1h1l3-.34.76.07h2.51l.23,1.1-.46.57L136.7,41h-1.18l-4.18.84v1.29L131.8,47l.38,0H140l.72.23C140.71,47.38,140.74,47.52,140.76,47.63Z"/><path class="cls-1" d="M151.33,38a.26.26,0,0,0,.07.19l1-.95c.26-.23.46-.43.63-.59a2.73,2.73,0,0,1,.89-.51,15.93,15.93,0,0,1,1.22-1.18l1-.88c.31-.27.63-.57,1-.89s.73-.71,1.18-1.2a.91.91,0,0,0,.61.2,1.23,1.23,0,0,0,.61-.16,1.68,1.68,0,0,1,.44.48,4,4,0,0,1,.28.59c-.53.6-1.05,1.19-1.56,1.75s-1,1.1-1.56,1.65-1,1.09-1.55,1.65-1,1.15-1.49,1.79a13.44,13.44,0,0,0,1.32,1.59c.54.59,1.12,1.17,1.72,1.77s1.22,1.18,1.83,1.75l1.71,1.57a3.84,3.84,0,0,0,.55.61l.65.63.57.61a.84.84,0,0,1,.24.51q0,.27-.72.51a11.25,11.25,0,0,0-1.44.63l-1.33.61-.69-.34a2.18,2.18,0,0,1-.59-.36.85.85,0,0,1-.28-.67,29.07,29.07,0,0,1-2.15-2.24c-.72-.84-1.42-1.62-2.11-2.36a.92.92,0,0,0-.07-.36l-.19-.4a.65.65,0,0,1-.35-.24,3.64,3.64,0,0,0-.24-.35L152.2,43a1.47,1.47,0,0,0-.45-.39.39.39,0,0,0-.29.32c0,.14,0,.3,0,.47a2.64,2.64,0,0,0,0,.29c0,.09,0,.16,0,.21v.36c0,.19,0,.4,0,.62a4.84,4.84,0,0,0,.06.61.58.58,0,0,0,.15.38c-.05.54-.09,1-.12,1.41s0,.83,0,1.29v.89a4,4,0,0,0,.07.78,5.72,5.72,0,0,1-2.39.52l-2.59,0-.72-1.49.23-.53c0-.51,0-1,0-1.44V46c0-1.14,0-2.23,0-3.25s.05-2,.08-3.06,0-2.05.09-3.1.06-2.18.06-3.4V31.46a1,1,0,0,1,.34-.19.7.7,0,0,0,.34-.23l.84.06.53,0,.53,0h.95a5.36,5.36,0,0,1,.31,1.19c.05.4.08.8.11,1.2l.08,3a2.77,2.77,0,0,0,.19,1.1c.1.21.22.31.38.31a.77.77,0,0,0,.34-.08Z"/><g id="A"><path class="cls-1" d="M34.6,19.56l2.75,4.76a.42.42,0,0,0,.74,0l2.75-4.76a.43.43,0,0,0-.37-.64H35A.43.43,0,0,0,34.6,19.56Z"/><path class="cls-1" d="M36.35,25.17l-2.74-4.74a.43.43,0,0,0-.75,0l-2.74,4.74a.44.44,0,0,0,.38.65H36A.43.43,0,0,0,36.35,25.17Z"/><path class="cls-2" d="M29.83,27.7l2.81,4.86a.42.42,0,0,0,.73,0l2.81-4.86a.43.43,0,0,0-.37-.64H30.2A.43.43,0,0,0,29.83,27.7Z"/><path class="cls-2" d="M31.64,33.35l-2.75-4.77a.43.43,0,0,0-.74,0L25.4,33.35a.43.43,0,0,0,.37.64h5.5A.43.43,0,0,0,31.64,33.35Z"/><path class="cls-3" d="M24.9,35.73l3,5.24a.41.41,0,0,0,.72,0l3-5.24a.41.41,0,0,0-.36-.62h-6A.41.41,0,0,0,24.9,35.73Z"/><path class="cls-3" d="M27,41.54l-2.78-4.82a.42.42,0,0,0-.73,0l-2.78,4.82a.42.42,0,0,0,.36.63h5.57A.42.42,0,0,0,27,41.54Z"/><path class="cls-4" d="M22.22,49.7l-2.76-4.8a.43.43,0,0,0-.74,0L16,49.7a.42.42,0,0,0,.37.63h5.54A.42.42,0,0,0,22.22,49.7Z"/><path class="cls-4" d="M20.4,44l2.81,4.88a.41.41,0,0,0,.72,0L26.75,44a.41.41,0,0,0-.36-.62H20.75A.41.41,0,0,0,20.4,44Z"/><path class="cls-1" d="M39.05,25.2l2.78-4.81a.42.42,0,0,1,.73,0l2.77,4.81a.42.42,0,0,1-.36.63H39.41A.42.42,0,0,1,39.05,25.2Z"/><path class="cls-2" d="M45.59,27.7l-2.8,4.85a.42.42,0,0,1-.73,0l-2.8-4.85a.43.43,0,0,1,.37-.64h5.59A.43.43,0,0,1,45.59,27.7Z"/><path class="cls-2" d="M43.8,33.33l2.73-4.73a.43.43,0,0,1,.75,0L50,33.33a.45.45,0,0,1-.38.66H44.18A.44.44,0,0,1,43.8,33.33Z"/><path class="cls-3" d="M50.51,35.75l-3,5.2a.41.41,0,0,1-.73,0l-3-5.2a.43.43,0,0,1,.36-.64h6A.42.42,0,0,1,50.51,35.75Z"/><path class="cls-3" d="M48.5,41.52l2.75-4.78a.43.43,0,0,1,.74,0l2.76,4.78a.42.42,0,0,1-.37.64H48.87A.42.42,0,0,1,48.5,41.52Z"/><path class="cls-4" d="M53.21,49.69,56,44.91a.43.43,0,0,1,.74,0l2.76,4.78a.43.43,0,0,1-.37.64H53.58A.43.43,0,0,1,53.21,49.69Z"/><path class="cls-4" d="M55.22,43.93l-3,5.18a.44.44,0,0,1-.76,0l-3-5.18a.43.43,0,0,1,.38-.65h6A.43.43,0,0,1,55.22,43.93Z"/><path class="cls-4" d="M44.26,49.7,47,44.9a.42.42,0,0,1,.73,0l2.77,4.8a.42.42,0,0,1-.36.64H44.63A.43.43,0,0,1,44.26,49.7Z"/><path class="cls-4" d="M35.35,49.68l2.74-4.76a.44.44,0,0,1,.75,0l2.75,4.76a.44.44,0,0,1-.38.65H35.72A.43.43,0,0,1,35.35,49.68Z"/><path class="cls-4" d="M46.14,44l-2.86,5a.42.42,0,0,1-.72,0L39.7,44a.42.42,0,0,1,.36-.63h5.72A.42.42,0,0,1,46.14,44Z"/></g></svg>