<?xml version="1.0" encoding="utf-8"?>
<!-- Generator: Adobe Illustrator 22.1.0, SVG Export Plug-In . SVG Version: 6.00 Build 0)  -->
<svg version="1.1" id="logo" xmlns="http://www.w3.org/2000/svg" xmlns:xlink="http://www.w3.org/1999/xlink" x="0px" y="0px"
	 viewBox="0 0 47.5 47.5" style="enable-background:new 0 0 47.5 47.5;" xml:space="preserve">
<style type="text/css">
	.st0{fill:#FFFFFF;}
</style>
<title>logo_aztrek_blanc-2</title>
<g id="A">
	<path class="st0" d="M20.7,8.7l2.8,4.8c0.1,0.2,0.4,0.3,0.6,0.2c0.1,0,0.1-0.1,0.2-0.2l2.8-4.8C27,8.5,27,8.2,26.8,8.1
		c-0.1,0-0.1-0.1-0.2-0.1H21c-0.2,0-0.4,0.2-0.4,0.4C20.6,8.6,20.6,8.6,20.7,8.7z"/>
	<path class="st0" d="M22.4,14.3l-2.7-4.7c-0.1-0.2-0.4-0.3-0.6-0.2c-0.1,0-0.1,0.1-0.2,0.2l-2.7,4.7c-0.1,0.2,0,0.5,0.2,0.6
		c0.1,0,0.1,0.1,0.2,0.1H22c0.2,0,0.4-0.2,0.4-0.4C22.5,14.5,22.5,14.4,22.4,14.3z"/>
	<path class="st0" d="M15.9,16.8l2.8,4.9c0.1,0.2,0.4,0.3,0.6,0.2c0.1,0,0.1-0.1,0.2-0.2l2.8-4.9c0.1-0.2,0-0.5-0.2-0.6
		c-0.1,0-0.1-0.1-0.2-0.1h-5.6c-0.2,0-0.4,0.2-0.4,0.4C15.8,16.7,15.9,16.8,15.9,16.8z"/>
	<path class="st0" d="M17.7,22.5L15,17.7c-0.1-0.2-0.4-0.3-0.6-0.2c-0.1,0-0.1,0.1-0.2,0.2l-2.8,4.8c-0.1,0.2-0.1,0.5,0.1,0.6
		c0.1,0,0.2,0.1,0.2,0.1h5.5c0.2,0,0.4-0.2,0.4-0.4C17.8,22.6,17.7,22.6,17.7,22.5z"/>
	<path class="st0" d="M11,24.9l3,5.2c0.1,0.2,0.4,0.3,0.6,0.1c0.1,0,0.1-0.1,0.1-0.1l3-5.2c0.1-0.2,0.1-0.4-0.1-0.6
		c-0.1,0-0.1-0.1-0.2-0.1h-6c-0.2,0-0.4,0.2-0.4,0.4C10.9,24.7,10.9,24.8,11,24.9z"/>
	<path class="st0" d="M13,30.7l-2.8-4.8c-0.1-0.2-0.4-0.3-0.6-0.2c-0.1,0-0.1,0.1-0.2,0.2l-2.8,4.8c-0.1,0.2,0,0.5,0.2,0.6
		c0.1,0,0.1,0.1,0.2,0.1h5.5c0.2,0,0.4-0.2,0.4-0.4C13.1,30.8,13,30.7,13,30.7z"/>
	<path class="st0" d="M8.2,38.8l-2.7-4.8c-0.1-0.2-0.4-0.3-0.6-0.2c-0.1,0-0.1,0.1-0.2,0.2L2,38.8c-0.1,0.2,0,0.5,0.2,0.6
		c0.1,0,0.1,0.1,0.2,0.1h5.5c0.2,0,0.4-0.2,0.4-0.4C8.3,39,8.3,38.9,8.2,38.8z"/>
	<path class="st0" d="M6.5,33.2L9.2,38c0.1,0.2,0.4,0.3,0.6,0.2c0.1,0,0.1-0.1,0.2-0.2l2.8-4.9c0.1-0.2,0-0.5-0.2-0.6
		c-0.1,0-0.1-0.1-0.2-0.1H6.8c-0.2,0-0.4,0.2-0.4,0.4C6.4,33,6.4,33.1,6.5,33.2z"/>
	<path class="st0" d="M25.1,14.3l2.8-4.8c0.1-0.2,0.4-0.3,0.6-0.2c0.1,0,0.1,0.1,0.2,0.2l2.8,4.8c0.1,0.2,0,0.5-0.2,0.6
		c-0.1,0-0.1,0.1-0.2,0.1h-5.6c-0.2,0-0.4-0.2-0.4-0.4C25.1,14.5,25.1,14.4,25.1,14.3z"/>
	<path class="st0" d="M31.7,16.8l-2.8,4.8c-0.1,0.2-0.4,0.3-0.6,0.2c-0.1,0-0.1-0.1-0.2-0.2l-2.8-4.8c-0.1-0.2,0-0.5,0.2-0.6
		c0.1,0,0.1-0.1,0.2-0.1h5.6c0.2,0,0.4,0.2,0.5,0.4C31.7,16.7,31.7,16.8,31.7,16.8z"/>
	<path class="st0" d="M29.9,22.5l2.7-4.7c0.1-0.2,0.4-0.3,0.6-0.2c0.1,0,0.1,0.1,0.2,0.2l2.7,4.7c0.1,0.2,0,0.5-0.2,0.6
		c-0.1,0-0.1,0.1-0.2,0.1h-5.5c-0.2,0-0.4-0.2-0.5-0.4C29.8,22.6,29.8,22.6,29.9,22.5z"/>
	<path class="st0" d="M36.6,24.9l-3,5.2c-0.1,0.2-0.4,0.3-0.6,0.2c-0.1,0-0.1-0.1-0.2-0.2l-3-5.2c-0.1-0.2,0-0.5,0.2-0.6
		c0.1,0,0.1-0.1,0.2-0.1h6c0.2,0,0.4,0.2,0.4,0.4C36.6,24.8,36.6,24.8,36.6,24.9z"/>
	<path class="st0" d="M34.5,30.7l2.8-4.8c0.1-0.2,0.4-0.3,0.6-0.2c0.1,0,0.1,0.1,0.2,0.2l2.8,4.8c0.1,0.2,0.1,0.5-0.1,0.6
		c-0.1,0-0.1,0.1-0.2,0.1h-5.5c-0.2,0-0.4-0.2-0.4-0.5C34.5,30.8,34.5,30.7,34.5,30.7z"/>
	<path class="st0" d="M39.2,38.8l2.8-4.8c0.1-0.2,0.4-0.3,0.6-0.2c0.1,0,0.1,0.1,0.2,0.2l2.8,4.8c0.1,0.2,0,0.5-0.2,0.6
		c-0.1,0-0.1,0.1-0.2,0.1h-5.5c-0.2,0-0.4-0.2-0.4-0.4C39.2,39,39.2,38.9,39.2,38.8z"/>
	<path class="st0" d="M41.2,33.1l-3,5.2c-0.1,0.2-0.4,0.3-0.6,0.2c-0.1,0-0.1-0.1-0.2-0.2l-3-5.2c-0.1-0.2,0-0.5,0.2-0.6
		c0.1,0,0.1-0.1,0.2-0.1h6c0.2,0,0.4,0.2,0.4,0.4C41.3,32.9,41.3,33,41.2,33.1z"/>
	<path class="st0" d="M30.3,38.8l2.8-4.8c0.1-0.2,0.4-0.3,0.6-0.2c0.1,0,0.1,0.1,0.2,0.2l2.8,4.8c0.1,0.2,0,0.5-0.2,0.6
		c-0.1,0-0.1,0.1-0.2,0.1h-5.5c-0.2,0-0.4-0.2-0.4-0.4C30.3,39,30.3,38.9,30.3,38.8z"/>
	<path class="st0" d="M21.4,38.8l2.8-4.8c0.1-0.2,0.4-0.3,0.6-0.2c0.1,0,0.1,0.1,0.2,0.2l2.7,4.8c0.1,0.2,0,0.5-0.2,0.6
		c-0.1,0-0.1,0.1-0.2,0.1h-5.5c-0.2,0-0.4-0.2-0.4-0.4C21.3,39,21.4,38.9,21.4,38.8z"/>
	<path class="st0" d="M32.2,33.1l-2.9,5c-0.1,0.2-0.4,0.3-0.6,0.2c-0.1,0-0.1-0.1-0.2-0.2l-2.9-5c-0.1-0.2,0-0.5,0.2-0.6
		c0.1,0,0.1-0.1,0.2-0.1h5.7c0.2,0,0.4,0.2,0.4,0.4C32.3,33,32.3,33.1,32.2,33.1z"/>
</g>
</svg>
