<svg id="logo" xmlns="http://www.w3.org/2000/svg" viewBox="0 0 85.04 85.04"><defs><style>.cls-1{fill:#9b562b;}.cls-2{fill:#a96b43;}.cls-3{fill:#c78a3d;}.cls-4{fill:#deb889;}</style></defs><title>logo_aztrek_QUADRI-2</title><g id="A"><path class="cls-1" d="M39.41,27.46l2.75,4.76a.43.43,0,0,0,.74,0l2.75-4.76a.43.43,0,0,0-.37-.65h-5.5A.43.43,0,0,0,39.41,27.46Z"/><path class="cls-1" d="M41.16,33.06l-2.74-4.74a.43.43,0,0,0-.75,0l-2.74,4.74a.44.44,0,0,0,.38.65h5.47A.43.43,0,0,0,41.16,33.06Z"/><path class="cls-2" d="M34.64,35.59l2.8,4.86a.43.43,0,0,0,.74,0L41,35.59a.43.43,0,0,0-.37-.64H35A.43.43,0,0,0,34.64,35.59Z"/><path class="cls-2" d="M36.45,41.24,33.7,36.48a.42.42,0,0,0-.74,0l-2.75,4.76a.42.42,0,0,0,.37.64h5.5A.42.42,0,0,0,36.45,41.24Z"/><path class="cls-3" d="M29.71,43.62l3,5.25a.41.41,0,0,0,.71,0l3-5.25a.41.41,0,0,0-.36-.62h-6A.41.41,0,0,0,29.71,43.62Z"/><path class="cls-3" d="M31.76,49.43,29,44.61a.42.42,0,0,0-.73,0l-2.78,4.82a.42.42,0,0,0,.36.63H31.4A.42.42,0,0,0,31.76,49.43Z"/><path class="cls-4" d="M27,57.59,24.26,52.8a.42.42,0,0,0-.73,0l-2.77,4.79a.43.43,0,0,0,.37.64h5.54A.42.42,0,0,0,27,57.59Z"/><path class="cls-4" d="M25.2,51.92,28,56.79a.41.41,0,0,0,.72,0l2.82-4.87a.42.42,0,0,0-.36-.63H25.56A.42.42,0,0,0,25.2,51.92Z"/><path class="cls-1" d="M43.86,33.09l2.77-4.81a.43.43,0,0,1,.74,0l2.77,4.81a.42.42,0,0,1-.36.63H44.22A.42.42,0,0,1,43.86,33.09Z"/><path class="cls-2" d="M50.4,35.59l-2.8,4.85a.43.43,0,0,1-.74,0l-2.79-4.85a.43.43,0,0,1,.37-.64H50A.43.43,0,0,1,50.4,35.59Z"/><path class="cls-2" d="M48.61,41.23l2.73-4.74a.43.43,0,0,1,.75,0l2.74,4.74a.44.44,0,0,1-.38.65H49A.43.43,0,0,1,48.61,41.23Z"/><path class="cls-3" d="M55.32,43.64l-3,5.21a.41.41,0,0,1-.72,0l-3-5.21a.42.42,0,0,1,.36-.63h6A.42.42,0,0,1,55.32,43.64Z"/><path class="cls-3" d="M53.3,49.41l2.76-4.77a.42.42,0,0,1,.74,0l2.76,4.77a.43.43,0,0,1-.37.65H53.67A.44.44,0,0,1,53.3,49.41Z"/><path class="cls-4" d="M58,57.58l2.76-4.78a.43.43,0,0,1,.74,0l2.76,4.78a.43.43,0,0,1-.37.64H58.39A.43.43,0,0,1,58,57.58Z"/><path class="cls-4" d="M60,51.83l-3,5.17a.44.44,0,0,1-.76,0l-3-5.17a.44.44,0,0,1,.38-.66h6A.44.44,0,0,1,60,51.83Z"/><path class="cls-4" d="M49.07,57.59l2.78-4.8a.42.42,0,0,1,.73,0l2.77,4.8a.43.43,0,0,1-.36.64H49.44A.43.43,0,0,1,49.07,57.59Z"/><path class="cls-4" d="M40.15,57.58l2.75-4.76a.43.43,0,0,1,.75,0l2.74,4.76a.43.43,0,0,1-.37.64H40.53A.43.43,0,0,1,40.15,57.58Z"/><path class="cls-4" d="M51,51.89l-2.86,5a.41.41,0,0,1-.72,0l-2.87-5a.42.42,0,0,1,.37-.63h5.72A.42.42,0,0,1,51,51.89Z"/></g></svg>